<?xml version="1.0" encoding="utf-8"?>
<!-- Generator: Adobe Illustrator 24.0.0, SVG Export Plug-In . SVG Version: 6.00 Build 0)  -->
<svg version="1.1" id="Layer_1" xmlns="http://www.w3.org/2000/svg" xmlns:xlink="http://www.w3.org/1999/xlink" x="0px" y="0px"
	 viewBox="0 0 28.8 28.8" style="enable-background:new 0 0 28.8 28.8;" xml:space="preserve">
<style type="text/css">
	.st0{fill:none;stroke:#3C2562;stroke-width:1.6;stroke-miterlimit:10;}
	.st1{fill:#3C2562;}
</style>
<circle class="st0" cx="14.4" cy="14.4" r="12.8"/>
<path class="st1" d="M10.7,14.4c0-1.5,0-3,0-4.5c0-0.7,0.6-1.1,1.3-0.7c2.4,1.4,4.8,2.8,7.2,4.2c0.3,0.1,0.5,0.3,0.8,0.4
	c0.6,0.3,0.6,1,0,1.3c-2.1,1.2-4.2,2.4-6.2,3.6c-0.6,0.3-1.1,0.7-1.7,1c-0.7,0.4-1.2,0.1-1.2-0.7C10.7,17.5,10.7,15.9,10.7,14.4
	C10.7,14.4,10.7,14.4,10.7,14.4z"/>
<image style="overflow:visible;" width="297" height="261" xlink:href="27A71B7B.jpg"  transform="matrix(1 0 0 1 -484.4998 -161.2038)">
</image>
</svg>
