<svg version="1.1" id="Layer_1" xmlns="http://www.w3.org/2000/svg" xmlns:xlink="http://www.w3.org/1999/xlink" x="0px" y="0px"
	 width="100%" viewBox="0 0 64 64" enable-background="new 0 0 64 64" xml:space="preserve">
<path fill="#FED7E5" opacity="1.000000" stroke="none" 
	d="
M28.000000,61.000000 
	C25.668150,57.845730 23.233551,54.759697 21.066187,51.496193 
	C20.403954,50.499031 20.476030,49.014210 20.138634,47.547729 
	C20.065447,47.342747 20.413940,47.325089 20.708252,47.226456 
	C21.318445,46.443455 21.634327,45.759087 22.347080,45.042000 
	C28.396629,43.215878 25.790779,39.367809 25.083370,35.709518 
	C25.079620,34.630867 24.985477,33.812267 25.039688,32.685814 
	C26.090231,31.326338 26.992422,30.274714 27.894611,29.223087 
	C28.643396,30.121973 29.392181,31.020859 30.080879,32.171368 
	C30.041437,32.593548 30.062086,32.764099 30.042747,33.240925 
	C30.024462,33.751976 30.046160,33.956749 30.018335,34.410091 
	C30.139076,35.107040 30.309341,35.555424 30.667660,36.215683 
	C30.898914,36.611420 30.942116,36.795273 30.762775,37.192307 
	C31.338964,37.592613 32.137695,37.779739 33.057877,38.230255 
	C34.035450,38.939392 34.849247,39.517529 35.755268,39.807194 
	C39.073849,40.868191 43.656933,40.375332 43.025711,46.251957 
	C42.988392,46.481899 43.039162,46.945030 43.028374,47.369392 
	C43.432415,54.032108 40.785267,58.431664 34.992935,60.729919 
	C34.556343,60.368797 34.214207,60.276932 33.493835,60.236038 
	C31.716038,60.523464 30.316481,60.759926 28.687691,60.997040 
	C28.458460,60.997696 28.000000,61.000000 28.000000,61.000000 
z"/>
<path fill="#0189EE" opacity="1.000000" stroke="none" 
	d="
M55.000000,3.000000 
	C55.138416,3.312852 55.276836,3.625705 55.705719,4.383490 
	C55.941925,6.205200 55.887672,7.581976 55.375847,8.966185 
	C39.664494,8.948615 24.410713,8.923614 9.109074,8.500839 
	C9.370136,6.370900 9.679061,4.638733 10.451044,2.993334 
	C25.609402,3.053401 40.304703,3.026700 55.000000,3.000000 
z"/>
<path fill="#E5E7E8" opacity="1.000000" stroke="none" 
	d="
M55.833424,8.958753 
	C55.887672,7.581976 55.941925,6.205200 55.998089,4.414211 
	C56.666862,5.319734 57.899105,6.633446 57.913235,7.960131 
	C58.056389,21.402637 58.000584,34.847263 58.000584,48.854645 
	C54.044353,48.854645 50.175598,48.854645 46.083485,48.854645 
	C46.204636,55.366074 45.250221,60.846729 38.599014,63.098770 
	C34.870667,64.361160 31.170744,65.278687 28.005737,61.405518 
	C28.000000,61.000000 28.458460,60.997696 28.934568,61.263149 
	C30.984356,61.390022 32.558037,61.251446 34.372112,61.096893 
	C34.612511,61.080917 35.087391,60.999176 35.087391,60.999176 
	C40.785267,58.431664 43.432415,54.032108 43.477135,47.400326 
	C47.291515,46.675278 50.646351,46.343658 54.284035,45.704727 
	C54.697617,34.233589 54.828350,23.069759 55.066132,11.647169 
	C55.399590,10.905437 55.625996,10.422467 55.898876,9.693319 
	C55.908039,9.284346 55.870731,9.121550 55.833424,8.958753 
z"/>
<path fill="#3D3266" opacity="1.000000" stroke="none" 
	d="
M9.987985,2.906567 
	C9.679061,4.638733 9.370136,6.370900 9.078398,8.779602 
	C9.108249,9.642529 9.120914,9.828921 9.100559,10.289787 
	C9.081671,10.748019 9.095800,10.931779 9.077872,11.339296 
	C9.045815,11.563054 9.190873,11.991234 9.125446,12.456324 
	C9.118053,23.616808 9.176088,34.312202 9.192739,45.263931 
	C9.448165,45.636562 9.744975,45.752857 9.975072,45.918449 
	C9.908358,45.967743 9.935759,46.131363 9.961802,46.347786 
	C9.987845,46.564205 10.000000,47.000000 10.000000,47.000000 
	C9.334642,46.106804 8.097710,45.218700 8.089696,44.319645 
	C7.970183,30.910666 7.996801,17.500154 8.066946,4.090416 
	C8.070365,3.436919 8.791393,2.787175 9.587189,2.294498 
	C9.996120,2.453311 9.987985,2.906567 9.987985,2.906567 
z"/>
<path fill="#3F4075" opacity="1.000000" stroke="none" 
	d="
M10.451044,2.993334 
	C9.987985,2.906567 9.996120,2.453311 9.998060,2.226656 
	C23.528147,2.000257 37.056335,1.984848 50.584385,2.021503 
	C52.192688,2.025860 53.800213,2.314485 55.204048,2.735671 
	C40.304703,3.026700 25.609402,3.053401 10.451044,2.993334 
z"/>
<path fill="#675F85" opacity="1.000000" stroke="none" 
	d="
M10.454110,46.999794 
	C10.000000,47.000000 9.987845,46.564205 10.418402,46.295578 
	C13.905444,46.070503 16.961929,46.114056 20.092308,46.457943 
	C20.248781,46.947216 20.331362,47.136150 20.413940,47.325089 
	C20.413940,47.325089 20.065447,47.342747 20.032722,47.171371 
	C16.969406,46.999866 13.938813,46.999729 10.454110,46.999794 
z"/>
<path fill="#D4FBFF" opacity="1.000000" stroke="none" 
	d="
M20.018414,46.157608 
	C16.961929,46.114056 13.905444,46.070503 10.392359,46.079155 
	C9.935759,46.131363 9.908358,45.967743 9.877169,45.742805 
	C9.688215,45.292400 9.484263,45.122311 9.234123,45.007599 
	C9.176088,34.312202 9.118053,23.616808 9.292770,12.353872 
	C9.731040,11.616367 9.888187,11.409631 10.461899,11.102453 
	C24.014505,11.025269 37.102314,10.980718 50.189671,11.038500 
	C51.780720,11.045525 53.369343,11.603366 54.959087,11.905931 
	C54.828350,23.069759 54.697617,34.233589 53.834671,45.607025 
	C49.755978,45.885094 46.409504,45.953556 43.063026,46.022015 
	C43.656933,40.375332 39.073849,40.868191 35.755268,39.807194 
	C34.849247,39.517529 34.035450,38.939392 33.096703,38.017975 
	C33.014080,37.542305 33.101715,37.119694 33.551300,37.074631 
	C37.338818,36.977032 40.676746,36.924500 44.347076,37.042084 
	C47.745113,38.845592 48.866978,37.642944 48.849422,34.470745 
	C48.819088,28.988544 49.014721,23.501364 48.823322,18.026487 
	C48.777222,16.707869 47.586441,15.429269 46.501179,14.079718 
	C37.385731,14.333498 28.691175,14.639826 19.996780,14.975426 
	C19.996939,15.004699 20.053127,14.988254 19.895004,14.685475 
	C18.849302,14.298499 17.961725,14.214300 16.707071,14.218032 
	C15.913804,15.149833 15.132282,15.987923 15.118446,16.838501 
	C15.020436,22.863377 15.058811,28.890949 15.098512,34.917366 
	C15.116229,37.606743 16.353285,38.431187 18.966434,37.505878 
	C20.912598,36.816750 22.979721,36.469231 24.992973,35.969570 
	C25.790779,39.367809 28.396629,43.215878 22.064890,45.085953 
	C20.930025,45.494289 20.474220,45.825951 20.018414,46.157608 
z"/>
<path fill="#6DC9F7" opacity="1.000000" stroke="none" 
	d="
M30.140966,31.919744 
	C29.392181,31.020859 28.643396,30.121973 27.894611,29.223087 
	C26.992422,30.274714 26.090231,31.326338 24.624252,32.688717 
	C22.415123,32.346558 19.393730,31.761923 19.357372,31.029175 
	C19.178904,27.432333 19.794024,23.796114 20.587002,20.140467 
	C28.654171,20.129669 36.263149,20.152208 44.094330,20.518177 
	C44.226395,24.614399 44.136250,28.367193 43.581760,32.078545 
	C38.791931,31.997986 34.466450,31.958866 30.140966,31.919744 
z"/>
<path fill="#FA759E" opacity="1.000000" stroke="none" 
	d="
M20.128813,20.173805 
	C19.794024,23.796114 19.178904,27.432333 19.357372,31.029175 
	C19.393730,31.761923 22.415123,32.346558 24.475899,32.996567 
	C24.985477,33.812267 25.079620,34.630867 25.083370,35.709518 
	C22.979721,36.469231 20.912598,36.816750 18.966434,37.505878 
	C16.353285,38.431187 15.116229,37.606743 15.098512,34.917366 
	C15.058811,28.890949 15.020436,22.863377 15.118446,16.838501 
	C15.132282,15.987923 15.913804,15.149833 16.896780,14.501598 
	C18.320086,14.794242 19.186605,14.891248 20.053127,14.988254 
	C20.053127,14.988254 19.996939,15.004699 19.937172,15.408514 
	C25.856415,16.209049 31.843853,16.980816 37.810940,16.846758 
	C40.866768,16.778103 43.886192,15.089007 46.922073,14.132267 
	C47.586441,15.429269 48.777222,16.707869 48.823322,18.026487 
	C49.014721,23.501364 48.819088,28.988544 48.849422,34.470745 
	C48.866978,37.642944 47.745113,38.845592 44.055672,36.742920 
	C39.114445,36.183693 34.797028,36.093746 30.479607,36.003799 
	C30.309341,35.555424 30.139076,35.107040 30.475433,34.382736 
	C35.270168,33.729420 39.558277,33.352032 43.906544,32.763371 
	C43.966702,32.552097 44.046108,32.119987 44.046108,32.119987 
	C44.136250,28.367193 44.226395,24.614399 43.891239,20.144705 
	C37.675644,19.284971 31.884809,19.031736 26.095345,19.059990 
	C24.104736,19.069702 22.117558,19.782305 20.128813,20.173805 
z"/>
<path fill="#588BBA" opacity="1.000000" stroke="none" 
	d="
M43.581760,32.078545 
	C44.046108,32.119987 43.966702,32.552097 43.455399,32.771149 
	C38.656971,32.971680 34.369854,32.953163 30.082733,32.934647 
	C30.062086,32.764099 30.041437,32.593548 30.080879,32.171368 
	C34.466450,31.958866 38.791931,31.997986 43.581760,32.078545 
z"/>
<path fill="#7E4C7D" opacity="1.000000" stroke="none" 
	d="
M30.042747,33.240925 
	C34.369854,32.953163 38.656971,32.971680 43.395241,32.982422 
	C39.558277,33.352032 35.270168,33.729420 30.524960,34.134163 
	C30.046160,33.956749 30.024462,33.751976 30.042747,33.240925 
z"/>
<path fill="#787A9D" opacity="1.000000" stroke="none" 
	d="
M30.667660,36.215683 
	C34.797028,36.093746 39.114445,36.183693 43.723274,36.572800 
	C40.676746,36.924500 37.338818,36.977032 33.199989,37.031502 
	C31.927834,37.015335 31.456575,36.997231 30.985319,36.979130 
	C30.942116,36.795273 30.898914,36.611420 30.667660,36.215683 
z"/>
<path fill="#655D84" opacity="1.000000" stroke="none" 
	d="
M43.025711,46.251957 
	C46.409504,45.953556 49.755978,45.885094 53.551819,45.914337 
	C50.646351,46.343658 47.291515,46.675278 43.487923,46.975960 
	C43.039162,46.945030 42.988392,46.481899 43.025711,46.251957 
z"/>
<path fill="#796C8F" opacity="1.000000" stroke="none" 
	d="
M34.131714,61.112869 
	C32.558037,61.251446 30.984356,61.390022 29.163799,61.262493 
	C30.316481,60.759926 31.716038,60.523464 33.555084,60.468697 
	C33.994572,60.650394 34.131714,61.112865 34.131714,61.112869 
z"/>
<path fill="#A3B8CC" opacity="1.000000" stroke="none" 
	d="
M30.762775,37.192307 
	C31.456575,36.997231 31.927834,37.015335 32.750404,37.076565 
	C33.101715,37.119694 33.014080,37.542305 32.975254,37.754585 
	C32.137695,37.779739 31.338964,37.592613 30.762775,37.192307 
z"/>
<path fill="#5B517C" opacity="1.000000" stroke="none" 
	d="
M20.092308,46.457947 
	C20.474220,45.825951 20.930025,45.494289 21.668018,45.118675 
	C21.634327,45.759087 21.318445,46.443455 20.708252,47.226456 
	C20.331362,47.136150 20.248781,46.947216 20.092308,46.457947 
z"/>
<path fill="#B99BB6" opacity="1.000000" stroke="none" 
	d="
M34.372112,61.096893 
	C34.131714,61.112865 33.994572,60.650394 33.933319,60.417732 
	C34.214207,60.276932 34.556343,60.368797 34.992935,60.729919 
	C35.087391,60.999176 34.612511,61.080917 34.372112,61.096893 
z"/>
<path fill="#1764B5" opacity="1.000000" stroke="none" 
	d="
M9.133577,10.015314 
	C9.120914,9.828921 9.108249,9.642529 9.126261,9.177375 
	C24.410713,8.923614 39.664494,8.948615 55.375847,8.966185 
	C55.870731,9.121550 55.908039,9.284346 55.440842,9.713428 
	C39.668747,9.991582 24.401161,10.003448 9.133577,10.015314 
z"/>
<path fill="#727BA0" opacity="1.000000" stroke="none" 
	d="
M9.100559,10.289787 
	C24.401161,10.003448 39.668747,9.991582 55.394363,9.959606 
	C55.625996,10.422467 55.399590,10.905437 55.066132,11.647169 
	C53.369343,11.603366 51.780720,11.045525 50.189671,11.038500 
	C37.102314,10.980718 24.014505,11.025269 10.242086,11.055738 
	C9.557338,11.072693 9.109929,11.115539 9.109929,11.115539 
	C9.095800,10.931779 9.081671,10.748019 9.100559,10.289787 
z"/>
<path fill="#C9ECF3" opacity="1.000000" stroke="none" 
	d="
M9.077872,11.339296 
	C9.109929,11.115539 9.557338,11.072693 9.777150,11.119408 
	C9.888187,11.409631 9.731040,11.616367 9.358197,11.888783 
	C9.190873,11.991234 9.045815,11.563054 9.077872,11.339296 
z"/>
<path fill="#C9ECF3" opacity="1.000000" stroke="none" 
	d="
M9.192739,45.263931 
	C9.484263,45.122311 9.688215,45.292400 9.943883,45.693512 
	C9.744975,45.752857 9.448165,45.636562 9.192739,45.263931 
z"/>
<path fill="#5C4D7A" opacity="1.000000" stroke="none" 
	d="
M46.501175,14.079719 
	C43.886192,15.089007 40.866768,16.778103 37.810940,16.846758 
	C31.843853,16.980816 25.856415,16.209049 19.937012,15.379242 
	C28.691175,14.639826 37.385731,14.333498 46.501175,14.079719 
z"/>
<path fill="#5C4D7A" opacity="1.000000" stroke="none" 
	d="
M19.895004,14.685475 
	C19.186605,14.891248 18.320086,14.794242 17.263855,14.413668 
	C17.961725,14.214300 18.849302,14.298499 19.895004,14.685475 
z"/>
<path fill="#D8D5DF" opacity="1.000000" stroke="none" 
	d="
M20.587002,20.140465 
	C22.117558,19.782305 24.104736,19.069702 26.095345,19.059990 
	C31.884809,19.031736 37.675644,19.284971 43.669037,19.801277 
	C36.263149,20.152208 28.654171,20.129669 20.587002,20.140465 
z"/>
</svg>